<svg width="512px" height="512px" xmlns="http://www.w3.org/2000/svg" viewBox="0 0 32 32"><rect width="1" height="1" fill="#000000" x="4" y="0"/>
<rect width="1" height="1" fill="#000000" x="5" y="0"/>
<rect width="1" height="1" fill="#000000" x="6" y="0"/>
<rect width="1" height="1" fill="#000000" x="7" y="0"/>
<rect width="1" height="1" fill="#000000" x="0" y="1"/>
<rect width="1" height="1" fill="#000000" x="1" y="1"/>
<rect width="1" height="1" fill="#000000" x="2" y="1"/>
<rect width="1" height="1" fill="#000000" x="4" y="1"/>
<rect width="1" height="1" fill="#f00008" x="5" y="1"/>
<rect width="1" height="1" fill="#f00008" x="6" y="1"/>
<rect width="1" height="1" fill="#f89868" x="7" y="1"/>
<rect width="1" height="1" fill="#000000" x="8" y="1"/>
<rect width="1" height="1" fill="#080000" x="27" y="1"/>
<rect width="1" height="1" fill="#080000" x="28" y="1"/>
<rect width="1" height="1" fill="#080000" x="29" y="1"/>
<rect width="1" height="1" fill="#000000" x="0" y="2"/>
<rect width="1" height="1" fill="#000000" x="1" y="2"/>
<rect width="1" height="1" fill="#000000" x="2" y="2"/>
<rect width="1" height="1" fill="#000000" x="3" y="2"/>
<rect width="1" height="1" fill="#000000" x="4" y="2"/>
<rect width="1" height="1" fill="#f00008" x="5" y="2"/>
<rect width="1" height="1" fill="#f00008" x="6" y="2"/>
<rect width="1" height="1" fill="#f00008" x="7" y="2"/>
<rect width="1" height="1" fill="#f85800" x="8" y="2"/>
<rect width="1" height="1" fill="#000000" x="9" y="2"/>
<rect width="1" height="1" fill="#080000" x="21" y="2"/>
<rect width="1" height="1" fill="#080000" x="26" y="2"/>
<rect width="1" height="1" fill="#504000" x="27" y="2"/>
<rect width="1" height="1" fill="#f8f898" x="28" y="2"/>
<rect width="1" height="1" fill="#080000" x="29" y="2"/>
<rect width="1" height="1" fill="#000000" x="0" y="3"/>
<rect width="1" height="1" fill="#f89868" x="1" y="3"/>
<rect width="1" height="1" fill="#f8f8f8" x="2" y="3"/>
<rect width="1" height="1" fill="#000000" x="3" y="3"/>
<rect width="1" height="1" fill="#000000" x="4" y="3"/>
<rect width="1" height="1" fill="#f00008" x="5" y="3"/>
<rect width="1" height="1" fill="#f00008" x="6" y="3"/>
<rect width="1" height="1" fill="#f00008" x="7" y="3"/>
<rect width="1" height="1" fill="#f00008" x="8" y="3"/>
<rect width="1" height="1" fill="#f85800" x="9" y="3"/>
<rect width="1" height="1" fill="#000000" x="10" y="3"/>
<rect width="1" height="1" fill="#000000" x="11" y="3"/>
<rect width="1" height="1" fill="#000000" x="12" y="3"/>
<rect width="1" height="1" fill="#000000" x="13" y="3"/>
<rect width="1" height="1" fill="#080000" x="20" y="3"/>
<rect width="1" height="1" fill="#b88000" x="21" y="3"/>
<rect width="1" height="1" fill="#080000" x="22" y="3"/>
<rect width="1" height="1" fill="#080000" x="23" y="3"/>
<rect width="1" height="1" fill="#080000" x="24" y="3"/>
<rect width="1" height="1" fill="#080000" x="25" y="3"/>
<rect width="1" height="1" fill="#504000" x="26" y="3"/>
<rect width="1" height="1" fill="#f8f8f8" x="27" y="3"/>
<rect width="1" height="1" fill="#f8c000" x="28" y="3"/>
<rect width="1" height="1" fill="#080000" x="29" y="3"/>
<rect width="1" height="1" fill="#000000" x="0" y="4"/>
<rect width="1" height="1" fill="#f00008" x="1" y="4"/>
<rect width="1" height="1" fill="#f00008" x="2" y="4"/>
<rect width="1" height="1" fill="#f8b878" x="3" y="4"/>
<rect width="1" height="1" fill="#000000" x="4" y="4"/>
<rect width="1" height="1" fill="#800010" x="5" y="4"/>
<rect width="1" height="1" fill="#c00000" x="6" y="4"/>
<rect width="1" height="1" fill="#c00000" x="7" y="4"/>
<rect width="1" height="1" fill="#c00000" x="8" y="4"/>
<rect width="1" height="1" fill="#c00000" x="9" y="4"/>
<rect width="1" height="1" fill="#f00008" x="10" y="4"/>
<rect width="1" height="1" fill="#f85800" x="11" y="4"/>
<rect width="1" height="1" fill="#f85800" x="12" y="4"/>
<rect width="1" height="1" fill="#f00008" x="13" y="4"/>
<rect width="1" height="1" fill="#000000" x="14" y="4"/>
<rect width="1" height="1" fill="#080000" x="19" y="4"/>
<rect width="1" height="1" fill="#f8d880" x="20" y="4"/>
<rect width="1" height="1" fill="#f8f8f8" x="21" y="4"/>
<rect width="1" height="1" fill="#b88000" x="22" y="4"/>
<rect width="1" height="1" fill="#f8c000" x="23" y="4"/>
<rect width="1" height="1" fill="#f8f898" x="24" y="4"/>
<rect width="1" height="1" fill="#504000" x="25" y="4"/>
<rect width="1" height="1" fill="#f8f8f8" x="26" y="4"/>
<rect width="1" height="1" fill="#f8c000" x="27" y="4"/>
<rect width="1" height="1" fill="#f8c000" x="28" y="4"/>
<rect width="1" height="1" fill="#080000" x="29" y="4"/>
<rect width="1" height="1" fill="#080000" x="30" y="4"/>
<rect width="1" height="1" fill="#000000" x="0" y="5"/>
<rect width="1" height="1" fill="#f00008" x="1" y="5"/>
<rect width="1" height="1" fill="#f00008" x="2" y="5"/>
<rect width="1" height="1" fill="#f00008" x="3" y="5"/>
<rect width="1" height="1" fill="#f8b878" x="4" y="5"/>
<rect width="1" height="1" fill="#f89868" x="5" y="5"/>
<rect width="1" height="1" fill="#f89868" x="6" y="5"/>
<rect width="1" height="1" fill="#f89868" x="7" y="5"/>
<rect width="1" height="1" fill="#f89868" x="8" y="5"/>
<rect width="1" height="1" fill="#f8b878" x="9" y="5"/>
<rect width="1" height="1" fill="#f8b878" x="10" y="5"/>
<rect width="1" height="1" fill="#f8b878" x="11" y="5"/>
<rect width="1" height="1" fill="#f8f8f8" x="12" y="5"/>
<rect width="1" height="1" fill="#f85800" x="13" y="5"/>
<rect width="1" height="1" fill="#000000" x="14" y="5"/>
<rect width="1" height="1" fill="#080000" x="18" y="5"/>
<rect width="1" height="1" fill="#504000" x="19" y="5"/>
<rect width="1" height="1" fill="#f8f8f8" x="20" y="5"/>
<rect width="1" height="1" fill="#f8f8f8" x="21" y="5"/>
<rect width="1" height="1" fill="#b88000" x="22" y="5"/>
<rect width="1" height="1" fill="#f8f898" x="23" y="5"/>
<rect width="1" height="1" fill="#f8f898" x="24" y="5"/>
<rect width="1" height="1" fill="#f8f898" x="25" y="5"/>
<rect width="1" height="1" fill="#f8c000" x="26" y="5"/>
<rect width="1" height="1" fill="#f8c000" x="27" y="5"/>
<rect width="1" height="1" fill="#b88000" x="28" y="5"/>
<rect width="1" height="1" fill="#504000" x="29" y="5"/>
<rect width="1" height="1" fill="#7f2616" x="30" y="5"/>
<rect width="1" height="1" fill="#080000" x="31" y="5"/>
<rect width="1" height="1" fill="#000000" x="0" y="6"/>
<rect width="1" height="1" fill="#000000" x="1" y="6"/>
<rect width="1" height="1" fill="#c00000" x="2" y="6"/>
<rect width="1" height="1" fill="#c00000" x="3" y="6"/>
<rect width="1" height="1" fill="#f85800" x="4" y="6"/>
<rect width="1" height="1" fill="#f89868" x="5" y="6"/>
<rect width="1" height="1" fill="#f89868" x="6" y="6"/>
<rect width="1" height="1" fill="#f89868" x="7" y="6"/>
<rect width="1" height="1" fill="#f89868" x="8" y="6"/>
<rect width="1" height="1" fill="#f89868" x="9" y="6"/>
<rect width="1" height="1" fill="#f89868" x="10" y="6"/>
<rect width="1" height="1" fill="#f89868" x="11" y="6"/>
<rect width="1" height="1" fill="#f85800" x="12" y="6"/>
<rect width="1" height="1" fill="#800010" x="13" y="6"/>
<rect width="1" height="1" fill="#f85800" x="14" y="6"/>
<rect width="1" height="1" fill="#000000" x="15" y="6"/>
<rect width="1" height="1" fill="#000000" x="16" y="6"/>
<rect width="1" height="1" fill="#000000" x="17" y="6"/>
<rect width="1" height="1" fill="#f8c000" x="18" y="6"/>
<rect width="1" height="1" fill="#f8f898" x="19" y="6"/>
<rect width="1" height="1" fill="#504000" x="20" y="6"/>
<rect width="1" height="1" fill="#504000" x="21" y="6"/>
<rect width="1" height="1" fill="#d08000" x="22" y="6"/>
<rect width="1" height="1" fill="#d08000" x="23" y="6"/>
<rect width="1" height="1" fill="#d08000" x="24" y="6"/>
<rect width="1" height="1" fill="#d08000" x="25" y="6"/>
<rect width="1" height="1" fill="#d08000" x="26" y="6"/>
<rect width="1" height="1" fill="#f8c000" x="27" y="6"/>
<rect width="1" height="1" fill="#f8f898" x="28" y="6"/>
<rect width="1" height="1" fill="#d08000" x="29" y="6"/>
<rect width="1" height="1" fill="#f8d880" x="30" y="6"/>
<rect width="1" height="1" fill="#080000" x="31" y="6"/>
<rect width="1" height="1" fill="#000000" x="0" y="7"/>
<rect width="1" height="1" fill="#f00008" x="1" y="7"/>
<rect width="1" height="1" fill="#f00008" x="2" y="7"/>
<rect width="1" height="1" fill="#f85800" x="3" y="7"/>
<rect width="1" height="1" fill="#f85800" x="4" y="7"/>
<rect width="1" height="1" fill="#f85800" x="5" y="7"/>
<rect width="1" height="1" fill="#f85800" x="6" y="7"/>
<rect width="1" height="1" fill="#f85800" x="7" y="7"/>
<rect width="1" height="1" fill="#f85800" x="8" y="7"/>
<rect width="1" height="1" fill="#f85800" x="9" y="7"/>
<rect width="1" height="1" fill="#f85800" x="10" y="7"/>
<rect width="1" height="1" fill="#800010" x="11" y="7"/>
<rect width="1" height="1" fill="#800010" x="12" y="7"/>
<rect width="1" height="1" fill="#f85800" x="13" y="7"/>
<rect width="1" height="1" fill="#f8b878" x="14" y="7"/>
<rect width="1" height="1" fill="#f85800" x="15" y="7"/>
<rect width="1" height="1" fill="#080000" x="16" y="7"/>
<rect width="1" height="1" fill="#000000" x="17" y="7"/>
<rect width="1" height="1" fill="#f8f8f8" x="18" y="7"/>
<rect width="1" height="1" fill="#f8f898" x="19" y="7"/>
<rect width="1" height="1" fill="#f8f898" x="20" y="7"/>
<rect width="1" height="1" fill="#f8c000" x="21" y="7"/>
<rect width="1" height="1" fill="#f8f898" x="22" y="7"/>
<rect width="1" height="1" fill="#f8f898" x="23" y="7"/>
<rect width="1" height="1" fill="#f8f898" x="24" y="7"/>
<rect width="1" height="1" fill="#f8c000" x="25" y="7"/>
<rect width="1" height="1" fill="#f8c000" x="26" y="7"/>
<rect width="1" height="1" fill="#f8c000" x="27" y="7"/>
<rect width="1" height="1" fill="#f8c000" x="28" y="7"/>
<rect width="1" height="1" fill="#504000" x="29" y="7"/>
<rect width="1" height="1" fill="#908880" x="30" y="7"/>
<rect width="1" height="1" fill="#080000" x="31" y="7"/>
<rect width="1" height="1" fill="#000000" x="0" y="8"/>
<rect width="1" height="1" fill="#000000" x="1" y="8"/>
<rect width="1" height="1" fill="#c00000" x="2" y="8"/>
<rect width="1" height="1" fill="#c00000" x="3" y="8"/>
<rect width="1" height="1" fill="#c00000" x="4" y="8"/>
<rect width="1" height="1" fill="#f00008" x="5" y="8"/>
<rect width="1" height="1" fill="#f00008" x="6" y="8"/>
<rect width="1" height="1" fill="#f00008" x="7" y="8"/>
<rect width="1" height="1" fill="#f00008" x="8" y="8"/>
<rect width="1" height="1" fill="#f00008" x="9" y="8"/>
<rect width="1" height="1" fill="#f00008" x="10" y="8"/>
<rect width="1" height="1" fill="#f85800" x="11" y="8"/>
<rect width="1" height="1" fill="#f85800" x="12" y="8"/>
<rect width="1" height="1" fill="#f85800" x="13" y="8"/>
<rect width="1" height="1" fill="#f85800" x="14" y="8"/>
<rect width="1" height="1" fill="#000000" x="15" y="8"/>
<rect width="1" height="1" fill="#080000" x="18" y="8"/>
<rect width="1" height="1" fill="#080000" x="19" y="8"/>
<rect width="1" height="1" fill="#f8c000" x="20" y="8"/>
<rect width="1" height="1" fill="#f8c000" x="21" y="8"/>
<rect width="1" height="1" fill="#b88000" x="22" y="8"/>
<rect width="1" height="1" fill="#b88000" x="23" y="8"/>
<rect width="1" height="1" fill="#b88000" x="24" y="8"/>
<rect width="1" height="1" fill="#b88000" x="25" y="8"/>
<rect width="1" height="1" fill="#b88000" x="26" y="8"/>
<rect width="1" height="1" fill="#b88000" x="27" y="8"/>
<rect width="1" height="1" fill="#b88000" x="28" y="8"/>
<rect width="1" height="1" fill="#080000" x="29" y="8"/>
<rect width="1" height="1" fill="#080000" x="30" y="8"/>
<rect width="1" height="1" fill="#000000" x="0" y="9"/>
<rect width="1" height="1" fill="#f85800" x="1" y="9"/>
<rect width="1" height="1" fill="#f85800" x="2" y="9"/>
<rect width="1" height="1" fill="#c00000" x="3" y="9"/>
<rect width="1" height="1" fill="#000000" x="4" y="9"/>
<rect width="1" height="1" fill="#f85800" x="5" y="9"/>
<rect width="1" height="1" fill="#f85800" x="6" y="9"/>
<rect width="1" height="1" fill="#f85800" x="7" y="9"/>
<rect width="1" height="1" fill="#f89868" x="8" y="9"/>
<rect width="1" height="1" fill="#f89868" x="9" y="9"/>
<rect width="1" height="1" fill="#c00000" x="10" y="9"/>
<rect width="1" height="1" fill="#000000" x="11" y="9"/>
<rect width="1" height="1" fill="#000000" x="12" y="9"/>
<rect width="1" height="1" fill="#000000" x="13" y="9"/>
<rect width="1" height="1" fill="#000000" x="14" y="9"/>
<rect width="1" height="1" fill="#080000" x="20" y="9"/>
<rect width="1" height="1" fill="#f8f898" x="21" y="9"/>
<rect width="1" height="1" fill="#080000" x="22" y="9"/>
<rect width="1" height="1" fill="#080000" x="23" y="9"/>
<rect width="1" height="1" fill="#b88000" x="24" y="9"/>
<rect width="1" height="1" fill="#f8f898" x="25" y="9"/>
<rect width="1" height="1" fill="#f8c000" x="26" y="9"/>
<rect width="1" height="1" fill="#f8c000" x="27" y="9"/>
<rect width="1" height="1" fill="#f8c000" x="28" y="9"/>
<rect width="1" height="1" fill="#080000" x="29" y="9"/>
<rect width="1" height="1" fill="#000000" x="0" y="10"/>
<rect width="1" height="1" fill="#f89868" x="1" y="10"/>
<rect width="1" height="1" fill="#c00000" x="2" y="10"/>
<rect width="1" height="1" fill="#000000" x="3" y="10"/>
<rect width="1" height="1" fill="#000000" x="4" y="10"/>
<rect width="1" height="1" fill="#f89868" x="5" y="10"/>
<rect width="1" height="1" fill="#f89868" x="6" y="10"/>
<rect width="1" height="1" fill="#f89868" x="7" y="10"/>
<rect width="1" height="1" fill="#f89868" x="8" y="10"/>
<rect width="1" height="1" fill="#f00008" x="9" y="10"/>
<rect width="1" height="1" fill="#000000" x="10" y="10"/>
<rect width="1" height="1" fill="#000000" x="11" y="10"/>
<rect width="1" height="1" fill="#000000" x="12" y="10"/>
<rect width="1" height="1" fill="#000000" x="13" y="10"/>
<rect width="1" height="1" fill="#080000" x="21" y="10"/>
<rect width="1" height="1" fill="#080000" x="22" y="10"/>
<rect width="1" height="1" fill="#080000" x="23" y="10"/>
<rect width="1" height="1" fill="#080000" x="24" y="10"/>
<rect width="1" height="1" fill="#080000" x="25" y="10"/>
<rect width="1" height="1" fill="#f8f898" x="26" y="10"/>
<rect width="1" height="1" fill="#f8f898" x="27" y="10"/>
<rect width="1" height="1" fill="#f8f898" x="28" y="10"/>
<rect width="1" height="1" fill="#080000" x="29" y="10"/>
<rect width="1" height="1" fill="#000000" x="0" y="11"/>
<rect width="1" height="1" fill="#000000" x="1" y="11"/>
<rect width="1" height="1" fill="#000000" x="2" y="11"/>
<rect width="1" height="1" fill="#000000" x="3" y="11"/>
<rect width="1" height="1" fill="#000000" x="4" y="11"/>
<rect width="1" height="1" fill="#f89868" x="5" y="11"/>
<rect width="1" height="1" fill="#f89868" x="6" y="11"/>
<rect width="1" height="1" fill="#f89868" x="7" y="11"/>
<rect width="1" height="1" fill="#f8b878" x="8" y="11"/>
<rect width="1" height="1" fill="#000000" x="9" y="11"/>
<rect width="1" height="1" fill="#000000" x="10" y="11"/>
<rect width="1" height="1" fill="#000000" x="11" y="11"/>
<rect width="1" height="1" fill="#000000" x="12" y="11"/>
<rect width="1" height="1" fill="#000000" x="13" y="11"/>
<rect width="1" height="1" fill="#080000" x="21" y="11"/>
<rect width="1" height="1" fill="#080000" x="22" y="11"/>
<rect width="1" height="1" fill="#080000" x="23" y="11"/>
<rect width="1" height="1" fill="#080000" x="24" y="11"/>
<rect width="1" height="1" fill="#080000" x="25" y="11"/>
<rect width="1" height="1" fill="#080000" x="26" y="11"/>
<rect width="1" height="1" fill="#f8f8f8" x="27" y="11"/>
<rect width="1" height="1" fill="#f8f898" x="28" y="11"/>
<rect width="1" height="1" fill="#080000" x="29" y="11"/>
<rect width="1" height="1" fill="#000000" x="3" y="12"/>
<rect width="1" height="1" fill="#000000" x="4" y="12"/>
<rect width="1" height="1" fill="#f89868" x="5" y="12"/>
<rect width="1" height="1" fill="#f8b878" x="6" y="12"/>
<rect width="1" height="1" fill="#f8b878" x="7" y="12"/>
<rect width="1" height="1" fill="#f00008" x="8" y="12"/>
<rect width="1" height="1" fill="#000000" x="9" y="12"/>
<rect width="1" height="1" fill="#000000" x="10" y="12"/>
<rect width="1" height="1" fill="#000000" x="11" y="12"/>
<rect width="1" height="1" fill="#000000" x="12" y="12"/>
<rect width="1" height="1" fill="#000000" x="13" y="12"/>
<rect width="1" height="1" fill="#080000" x="20" y="12"/>
<rect width="1" height="1" fill="#080000" x="21" y="12"/>
<rect width="1" height="1" fill="#080000" x="22" y="12"/>
<rect width="1" height="1" fill="#080000" x="23" y="12"/>
<rect width="1" height="1" fill="#080000" x="24" y="12"/>
<rect width="1" height="1" fill="#080000" x="25" y="12"/>
<rect width="1" height="1" fill="#080000" x="26" y="12"/>
<rect width="1" height="1" fill="#080000" x="27" y="12"/>
<rect width="1" height="1" fill="#080000" x="28" y="12"/>
<rect width="1" height="1" fill="#080000" x="29" y="12"/>
<rect width="1" height="1" fill="#000000" x="3" y="13"/>
<rect width="1" height="1" fill="#000000" x="4" y="13"/>
<rect width="1" height="1" fill="#f8b878" x="5" y="13"/>
<rect width="1" height="1" fill="#f8f8f8" x="6" y="13"/>
<rect width="1" height="1" fill="#f8b878" x="7" y="13"/>
<rect width="1" height="1" fill="#000000" x="8" y="13"/>
<rect width="1" height="1" fill="#000000" x="9" y="13"/>
<rect width="1" height="1" fill="#000000" x="10" y="13"/>
<rect width="1" height="1" fill="#000000" x="11" y="13"/>
<rect width="1" height="1" fill="#000000" x="12" y="13"/>
<rect width="1" height="1" fill="#080000" x="21" y="13"/>
<rect width="1" height="1" fill="#080000" x="22" y="13"/>
<rect width="1" height="1" fill="#080000" x="23" y="13"/>
<rect width="1" height="1" fill="#080000" x="24" y="13"/>
<rect width="1" height="1" fill="#080000" x="25" y="13"/>
<rect width="1" height="1" fill="#080000" x="26" y="13"/>
<rect width="1" height="1" fill="#080000" x="27" y="13"/>
<rect width="1" height="1" fill="#000000" x="4" y="14"/>
<rect width="1" height="1" fill="#000000" x="5" y="14"/>
<rect width="1" height="1" fill="#000000" x="6" y="14"/>
<rect width="1" height="1" fill="#000000" x="7" y="14"/>
<rect width="1" height="1" fill="#000000" x="8" y="14"/>
<rect width="1" height="1" fill="#000000" x="9" y="14"/>
<rect width="1" height="1" fill="#000000" x="10" y="14"/>
<rect width="1" height="1" fill="#080000" x="22" y="14"/>
<rect width="1" height="1" fill="#080000" x="23" y="14"/>
<rect width="1" height="1" fill="#080000" x="24" y="14"/>
<rect width="1" height="1" fill="#080000" x="25" y="14"/>
<rect width="1" height="1" fill="#080000" x="26" y="14"/>
<rect width="1" height="1" fill="#080000" x="1" y="17"/>
<rect width="1" height="1" fill="#080000" x="2" y="17"/>
<rect width="1" height="1" fill="#080000" x="3" y="17"/>
<rect width="1" height="1" fill="#080000" x="4" y="17"/>
<rect width="1" height="1" fill="#080000" x="5" y="17"/>
<rect width="1" height="1" fill="#080000" x="6" y="17"/>
<rect width="1" height="1" fill="#080000" x="7" y="17"/>
<rect width="1" height="1" fill="#080000" x="8" y="17"/>
<rect width="1" height="1" fill="#080000" x="9" y="17"/>
<rect width="1" height="1" fill="#080000" x="10" y="17"/>
<rect width="1" height="1" fill="#080000" x="11" y="17"/>
<rect width="1" height="1" fill="#080000" x="24" y="17"/>
<rect width="1" height="1" fill="#080000" x="25" y="17"/>
<rect width="1" height="1" fill="#080000" x="0" y="18"/>
<rect width="1" height="1" fill="#30f830" x="1" y="18"/>
<rect width="1" height="1" fill="#30f830" x="2" y="18"/>
<rect width="1" height="1" fill="#00c010" x="3" y="18"/>
<rect width="1" height="1" fill="#00c010" x="4" y="18"/>
<rect width="1" height="1" fill="#30f830" x="5" y="18"/>
<rect width="1" height="1" fill="#30f830" x="6" y="18"/>
<rect width="1" height="1" fill="#009000" x="7" y="18"/>
<rect width="1" height="1" fill="#30f830" x="8" y="18"/>
<rect width="1" height="1" fill="#30f830" x="9" y="18"/>
<rect width="1" height="1" fill="#60f848" x="10" y="18"/>
<rect width="1" height="1" fill="#080000" x="11" y="18"/>
<rect width="1" height="1" fill="#080000" x="23" y="18"/>
<rect width="1" height="1" fill="#b8f0f8" x="24" y="18"/>
<rect width="1" height="1" fill="#0098f8" x="25" y="18"/>
<rect width="1" height="1" fill="#080000" x="26" y="18"/>
<rect width="1" height="1" fill="#080000" x="27" y="18"/>
<rect width="1" height="1" fill="#080000" x="0" y="19"/>
<rect width="1" height="1" fill="#30f830" x="1" y="19"/>
<rect width="1" height="1" fill="#009000" x="2" y="19"/>
<rect width="1" height="1" fill="#d8f8c8" x="3" y="19"/>
<rect width="1" height="1" fill="#d8f8c8" x="4" y="19"/>
<rect width="1" height="1" fill="#00c010" x="5" y="19"/>
<rect width="1" height="1" fill="#30f830" x="6" y="19"/>
<rect width="1" height="1" fill="#009000" x="7" y="19"/>
<rect width="1" height="1" fill="#30f830" x="8" y="19"/>
<rect width="1" height="1" fill="#30f830" x="9" y="19"/>
<rect width="1" height="1" fill="#60f848" x="10" y="19"/>
<rect width="1" height="1" fill="#003800" x="11" y="19"/>
<rect width="1" height="1" fill="#080000" x="12" y="19"/>
<rect width="1" height="1" fill="#080000" x="13" y="19"/>
<rect width="1" height="1" fill="#080000" x="14" y="19"/>
<rect width="1" height="1" fill="#080000" x="22" y="19"/>
<rect width="1" height="1" fill="#0068e8" x="23" y="19"/>
<rect width="1" height="1" fill="#b8f0f8" x="24" y="19"/>
<rect width="1" height="1" fill="#0098f8" x="25" y="19"/>
<rect width="1" height="1" fill="#48c8f8" x="26" y="19"/>
<rect width="1" height="1" fill="#48c8f8" x="27" y="19"/>
<rect width="1" height="1" fill="#080000" x="28" y="19"/>
<rect width="1" height="1" fill="#080000" x="29" y="19"/>
<rect width="1" height="1" fill="#080000" x="0" y="20"/>
<rect width="1" height="1" fill="#60f848" x="1" y="20"/>
<rect width="1" height="1" fill="#009000" x="2" y="20"/>
<rect width="1" height="1" fill="#f8f8f8" x="3" y="20"/>
<rect width="1" height="1" fill="#f8f8f8" x="4" y="20"/>
<rect width="1" height="1" fill="#00c010" x="5" y="20"/>
<rect width="1" height="1" fill="#60f848" x="6" y="20"/>
<rect width="1" height="1" fill="#009000" x="7" y="20"/>
<rect width="1" height="1" fill="#d8f8c8" x="8" y="20"/>
<rect width="1" height="1" fill="#d8f8c8" x="9" y="20"/>
<rect width="1" height="1" fill="#d8f8c8" x="10" y="20"/>
<rect width="1" height="1" fill="#009000" x="11" y="20"/>
<rect width="1" height="1" fill="#30f830" x="12" y="20"/>
<rect width="1" height="1" fill="#d8f8c8" x="13" y="20"/>
<rect width="1" height="1" fill="#080000" x="14" y="20"/>
<rect width="1" height="1" fill="#080000" x="21" y="20"/>
<rect width="1" height="1" fill="#f8d880" x="22" y="20"/>
<rect width="1" height="1" fill="#080000" x="23" y="20"/>
<rect width="1" height="1" fill="#b8f0f8" x="24" y="20"/>
<rect width="1" height="1" fill="#0098f8" x="25" y="20"/>
<rect width="1" height="1" fill="#48c8f8" x="26" y="20"/>
<rect width="1" height="1" fill="#48c8f8" x="27" y="20"/>
<rect width="1" height="1" fill="#48c8f8" x="28" y="20"/>
<rect width="1" height="1" fill="#48c8f8" x="29" y="20"/>
<rect width="1" height="1" fill="#080000" x="30" y="20"/>
<rect width="1" height="1" fill="#080000" x="31" y="20"/>
<rect width="1" height="1" fill="#080000" x="0" y="21"/>
<rect width="1" height="1" fill="#60f848" x="1" y="21"/>
<rect width="1" height="1" fill="#60f848" x="2" y="21"/>
<rect width="1" height="1" fill="#009000" x="3" y="21"/>
<rect width="1" height="1" fill="#009000" x="4" y="21"/>
<rect width="1" height="1" fill="#60f848" x="5" y="21"/>
<rect width="1" height="1" fill="#60f848" x="6" y="21"/>
<rect width="1" height="1" fill="#009000" x="7" y="21"/>
<rect width="1" height="1" fill="#009000" x="8" y="21"/>
<rect width="1" height="1" fill="#009000" x="9" y="21"/>
<rect width="1" height="1" fill="#00c010" x="10" y="21"/>
<rect width="1" height="1" fill="#00c010" x="11" y="21"/>
<rect width="1" height="1" fill="#d8f8c8" x="12" y="21"/>
<rect width="1" height="1" fill="#f8f8f8" x="13" y="21"/>
<rect width="1" height="1" fill="#080000" x="14" y="21"/>
<rect width="1" height="1" fill="#080000" x="21" y="21"/>
<rect width="1" height="1" fill="#080000" x="22" y="21"/>
<rect width="1" height="1" fill="#0068e8" x="23" y="21"/>
<rect width="1" height="1" fill="#f8f8f8" x="24" y="21"/>
<rect width="1" height="1" fill="#48c8f8" x="25" y="21"/>
<rect width="1" height="1" fill="#48c8f8" x="26" y="21"/>
<rect width="1" height="1" fill="#48c8f8" x="27" y="21"/>
<rect width="1" height="1" fill="#48c8f8" x="28" y="21"/>
<rect width="1" height="1" fill="#48c8f8" x="29" y="21"/>
<rect width="1" height="1" fill="#48c8f8" x="30" y="21"/>
<rect width="1" height="1" fill="#080000" x="31" y="21"/>
<rect width="1" height="1" fill="#080000" x="0" y="22"/>
<rect width="1" height="1" fill="#d8f8c8" x="1" y="22"/>
<rect width="1" height="1" fill="#d8f8c8" x="2" y="22"/>
<rect width="1" height="1" fill="#d8f8c8" x="3" y="22"/>
<rect width="1" height="1" fill="#d8f8c8" x="4" y="22"/>
<rect width="1" height="1" fill="#d8f8c8" x="5" y="22"/>
<rect width="1" height="1" fill="#d8f8c8" x="6" y="22"/>
<rect width="1" height="1" fill="#d8f8c8" x="7" y="22"/>
<rect width="1" height="1" fill="#d8f8c8" x="8" y="22"/>
<rect width="1" height="1" fill="#f8f8f8" x="9" y="22"/>
<rect width="1" height="1" fill="#d8f8c8" x="10" y="22"/>
<rect width="1" height="1" fill="#009000" x="11" y="22"/>
<rect width="1" height="1" fill="#30f830" x="12" y="22"/>
<rect width="1" height="1" fill="#30f830" x="13" y="22"/>
<rect width="1" height="1" fill="#080000" x="14" y="22"/>
<rect width="1" height="1" fill="#080000" x="20" y="22"/>
<rect width="1" height="1" fill="#080000" x="21" y="22"/>
<rect width="1" height="1" fill="#f8d880" x="22" y="22"/>
<rect width="1" height="1" fill="#080000" x="23" y="22"/>
<rect width="1" height="1" fill="#f8f8f8" x="24" y="22"/>
<rect width="1" height="1" fill="#f8f8f8" x="25" y="22"/>
<rect width="1" height="1" fill="#b8f0f8" x="26" y="22"/>
<rect width="1" height="1" fill="#48c8f8" x="27" y="22"/>
<rect width="1" height="1" fill="#48c8f8" x="28" y="22"/>
<rect width="1" height="1" fill="#48c8f8" x="29" y="22"/>
<rect width="1" height="1" fill="#48c8f8" x="30" y="22"/>
<rect width="1" height="1" fill="#080000" x="31" y="22"/>
<rect width="1" height="1" fill="#080000" x="0" y="23"/>
<rect width="1" height="1" fill="#009000" x="1" y="23"/>
<rect width="1" height="1" fill="#009000" x="2" y="23"/>
<rect width="1" height="1" fill="#009000" x="3" y="23"/>
<rect width="1" height="1" fill="#009000" x="4" y="23"/>
<rect width="1" height="1" fill="#009000" x="5" y="23"/>
<rect width="1" height="1" fill="#009000" x="6" y="23"/>
<rect width="1" height="1" fill="#009000" x="7" y="23"/>
<rect width="1" height="1" fill="#009000" x="8" y="23"/>
<rect width="1" height="1" fill="#009000" x="9" y="23"/>
<rect width="1" height="1" fill="#f8f8f8" x="10" y="23"/>
<rect width="1" height="1" fill="#003800" x="11" y="23"/>
<rect width="1" height="1" fill="#00c010" x="12" y="23"/>
<rect width="1" height="1" fill="#00c010" x="13" y="23"/>
<rect width="1" height="1" fill="#080000" x="14" y="23"/>
<rect width="1" height="1" fill="#080000" x="19" y="23"/>
<rect width="1" height="1" fill="#48c8f8" x="20" y="23"/>
<rect width="1" height="1" fill="#0018a8" x="21" y="23"/>
<rect width="1" height="1" fill="#080000" x="22" y="23"/>
<rect width="1" height="1" fill="#48c8f8" x="23" y="23"/>
<rect width="1" height="1" fill="#0068e8" x="24" y="23"/>
<rect width="1" height="1" fill="#0068e8" x="25" y="23"/>
<rect width="1" height="1" fill="#f8f8f8" x="26" y="23"/>
<rect width="1" height="1" fill="#f8f8f8" x="27" y="23"/>
<rect width="1" height="1" fill="#b8f0f8" x="28" y="23"/>
<rect width="1" height="1" fill="#48c8f8" x="29" y="23"/>
<rect width="1" height="1" fill="#48c8f8" x="30" y="23"/>
<rect width="1" height="1" fill="#080000" x="31" y="23"/>
<rect width="1" height="1" fill="#080000" x="0" y="24"/>
<rect width="1" height="1" fill="#009000" x="1" y="24"/>
<rect width="1" height="1" fill="#009000" x="2" y="24"/>
<rect width="1" height="1" fill="#009000" x="3" y="24"/>
<rect width="1" height="1" fill="#009000" x="4" y="24"/>
<rect width="1" height="1" fill="#009000" x="5" y="24"/>
<rect width="1" height="1" fill="#009000" x="6" y="24"/>
<rect width="1" height="1" fill="#009000" x="7" y="24"/>
<rect width="1" height="1" fill="#009000" x="8" y="24"/>
<rect width="1" height="1" fill="#009000" x="9" y="24"/>
<rect width="1" height="1" fill="#30f830" x="10" y="24"/>
<rect width="1" height="1" fill="#003800" x="11" y="24"/>
<rect width="1" height="1" fill="#080000" x="12" y="24"/>
<rect width="1" height="1" fill="#080000" x="13" y="24"/>
<rect width="1" height="1" fill="#080000" x="14" y="24"/>
<rect width="1" height="1" fill="#080000" x="18" y="24"/>
<rect width="1" height="1" fill="#0068e8" x="19" y="24"/>
<rect width="1" height="1" fill="#48c8f8" x="20" y="24"/>
<rect width="1" height="1" fill="#0018a8" x="21" y="24"/>
<rect width="1" height="1" fill="#48c8f8" x="22" y="24"/>
<rect width="1" height="1" fill="#0068e8" x="23" y="24"/>
<rect width="1" height="1" fill="#0068e8" x="24" y="24"/>
<rect width="1" height="1" fill="#0068e8" x="25" y="24"/>
<rect width="1" height="1" fill="#0068e8" x="26" y="24"/>
<rect width="1" height="1" fill="#0068e8" x="27" y="24"/>
<rect width="1" height="1" fill="#f8f8f8" x="28" y="24"/>
<rect width="1" height="1" fill="#f8f8f8" x="29" y="24"/>
<rect width="1" height="1" fill="#b8f0f8" x="30" y="24"/>
<rect width="1" height="1" fill="#080000" x="31" y="24"/>
<rect width="1" height="1" fill="#080000" x="0" y="25"/>
<rect width="1" height="1" fill="#003800" x="1" y="25"/>
<rect width="1" height="1" fill="#003800" x="2" y="25"/>
<rect width="1" height="1" fill="#009000" x="3" y="25"/>
<rect width="1" height="1" fill="#30f830" x="4" y="25"/>
<rect width="1" height="1" fill="#009000" x="5" y="25"/>
<rect width="1" height="1" fill="#009000" x="6" y="25"/>
<rect width="1" height="1" fill="#009000" x="7" y="25"/>
<rect width="1" height="1" fill="#009000" x="8" y="25"/>
<rect width="1" height="1" fill="#009000" x="9" y="25"/>
<rect width="1" height="1" fill="#009000" x="10" y="25"/>
<rect width="1" height="1" fill="#003800" x="11" y="25"/>
<rect width="1" height="1" fill="#30f830" x="12" y="25"/>
<rect width="1" height="1" fill="#009000" x="13" y="25"/>
<rect width="1" height="1" fill="#080000" x="14" y="25"/>
<rect width="1" height="1" fill="#080000" x="18" y="25"/>
<rect width="1" height="1" fill="#48c8f8" x="19" y="25"/>
<rect width="1" height="1" fill="#b8f0f8" x="20" y="25"/>
<rect width="1" height="1" fill="#0068e8" x="21" y="25"/>
<rect width="1" height="1" fill="#0018a8" x="22" y="25"/>
<rect width="1" height="1" fill="#0068e8" x="23" y="25"/>
<rect width="1" height="1" fill="#0068e8" x="24" y="25"/>
<rect width="1" height="1" fill="#0068e8" x="25" y="25"/>
<rect width="1" height="1" fill="#0068e8" x="26" y="25"/>
<rect width="1" height="1" fill="#0068e8" x="27" y="25"/>
<rect width="1" height="1" fill="#0068e8" x="28" y="25"/>
<rect width="1" height="1" fill="#0068e8" x="29" y="25"/>
<rect width="1" height="1" fill="#b8f0f8" x="30" y="25"/>
<rect width="1" height="1" fill="#080000" x="31" y="25"/>
<rect width="1" height="1" fill="#080000" x="0" y="26"/>
<rect width="1" height="1" fill="#00c010" x="1" y="26"/>
<rect width="1" height="1" fill="#003800" x="2" y="26"/>
<rect width="1" height="1" fill="#003800" x="3" y="26"/>
<rect width="1" height="1" fill="#003800" x="4" y="26"/>
<rect width="1" height="1" fill="#003800" x="5" y="26"/>
<rect width="1" height="1" fill="#003800" x="6" y="26"/>
<rect width="1" height="1" fill="#003800" x="7" y="26"/>
<rect width="1" height="1" fill="#003800" x="8" y="26"/>
<rect width="1" height="1" fill="#003800" x="9" y="26"/>
<rect width="1" height="1" fill="#003800" x="10" y="26"/>
<rect width="1" height="1" fill="#00c010" x="11" y="26"/>
<rect width="1" height="1" fill="#d8f8c8" x="12" y="26"/>
<rect width="1" height="1" fill="#30f830" x="13" y="26"/>
<rect width="1" height="1" fill="#080000" x="14" y="26"/>
<rect width="1" height="1" fill="#080000" x="18" y="26"/>
<rect width="1" height="1" fill="#0068e8" x="19" y="26"/>
<rect width="1" height="1" fill="#b8f0f8" x="20" y="26"/>
<rect width="1" height="1" fill="#48c8f8" x="21" y="26"/>
<rect width="1" height="1" fill="#0018a8" x="22" y="26"/>
<rect width="1" height="1" fill="#0018a8" x="23" y="26"/>
<rect width="1" height="1" fill="#0018a8" x="24" y="26"/>
<rect width="1" height="1" fill="#0068e8" x="25" y="26"/>
<rect width="1" height="1" fill="#0068e8" x="26" y="26"/>
<rect width="1" height="1" fill="#0068e8" x="27" y="26"/>
<rect width="1" height="1" fill="#0068e8" x="28" y="26"/>
<rect width="1" height="1" fill="#0068e8" x="29" y="26"/>
<rect width="1" height="1" fill="#0068e8" x="30" y="26"/>
<rect width="1" height="1" fill="#080000" x="31" y="26"/>
<rect width="1" height="1" fill="#080000" x="0" y="27"/>
<rect width="1" height="1" fill="#60f848" x="1" y="27"/>
<rect width="1" height="1" fill="#60f848" x="2" y="27"/>
<rect width="1" height="1" fill="#60f848" x="3" y="27"/>
<rect width="1" height="1" fill="#60f848" x="4" y="27"/>
<rect width="1" height="1" fill="#60f848" x="5" y="27"/>
<rect width="1" height="1" fill="#d8f8c8" x="6" y="27"/>
<rect width="1" height="1" fill="#60f848" x="7" y="27"/>
<rect width="1" height="1" fill="#d8f8c8" x="8" y="27"/>
<rect width="1" height="1" fill="#60f848" x="9" y="27"/>
<rect width="1" height="1" fill="#d8f8c8" x="10" y="27"/>
<rect width="1" height="1" fill="#d8f8c8" x="11" y="27"/>
<rect width="1" height="1" fill="#f8f8f8" x="12" y="27"/>
<rect width="1" height="1" fill="#30f830" x="13" y="27"/>
<rect width="1" height="1" fill="#080000" x="14" y="27"/>
<rect width="1" height="1" fill="#080000" x="18" y="27"/>
<rect width="1" height="1" fill="#0068e8" x="19" y="27"/>
<rect width="1" height="1" fill="#f8f8f8" x="20" y="27"/>
<rect width="1" height="1" fill="#b8f0f8" x="21" y="27"/>
<rect width="1" height="1" fill="#0018a8" x="22" y="27"/>
<rect width="1" height="1" fill="#0068e8" x="23" y="27"/>
<rect width="1" height="1" fill="#0018a8" x="24" y="27"/>
<rect width="1" height="1" fill="#0018a8" x="25" y="27"/>
<rect width="1" height="1" fill="#0018a8" x="26" y="27"/>
<rect width="1" height="1" fill="#0068e8" x="27" y="27"/>
<rect width="1" height="1" fill="#0068e8" x="28" y="27"/>
<rect width="1" height="1" fill="#0068e8" x="29" y="27"/>
<rect width="1" height="1" fill="#080000" x="30" y="27"/>
<rect width="1" height="1" fill="#080000" x="0" y="28"/>
<rect width="1" height="1" fill="#009000" x="1" y="28"/>
<rect width="1" height="1" fill="#009000" x="2" y="28"/>
<rect width="1" height="1" fill="#009000" x="3" y="28"/>
<rect width="1" height="1" fill="#009000" x="4" y="28"/>
<rect width="1" height="1" fill="#009000" x="5" y="28"/>
<rect width="1" height="1" fill="#009000" x="6" y="28"/>
<rect width="1" height="1" fill="#009000" x="7" y="28"/>
<rect width="1" height="1" fill="#009000" x="8" y="28"/>
<rect width="1" height="1" fill="#009000" x="9" y="28"/>
<rect width="1" height="1" fill="#009000" x="10" y="28"/>
<rect width="1" height="1" fill="#009000" x="11" y="28"/>
<rect width="1" height="1" fill="#003800" x="12" y="28"/>
<rect width="1" height="1" fill="#00c010" x="13" y="28"/>
<rect width="1" height="1" fill="#080000" x="14" y="28"/>
<rect width="1" height="1" fill="#080000" x="18" y="28"/>
<rect width="1" height="1" fill="#b8f0f8" x="19" y="28"/>
<rect width="1" height="1" fill="#0068e8" x="20" y="28"/>
<rect width="1" height="1" fill="#0068e8" x="21" y="28"/>
<rect width="1" height="1" fill="#0018a8" x="22" y="28"/>
<rect width="1" height="1" fill="#0068e8" x="23" y="28"/>
<rect width="1" height="1" fill="#0018a8" x="24" y="28"/>
<rect width="1" height="1" fill="#586070" x="25" y="28"/>
<rect width="1" height="1" fill="#080000" x="26" y="28"/>
<rect width="1" height="1" fill="#0018a8" x="27" y="28"/>
<rect width="1" height="1" fill="#0018a8" x="28" y="28"/>
<rect width="1" height="1" fill="#080000" x="29" y="28"/>
<rect width="1" height="1" fill="#080000" x="30" y="28"/>
<rect width="1" height="1" fill="#080000" x="0" y="29"/>
<rect width="1" height="1" fill="#98a088" x="1" y="29"/>
<rect width="1" height="1" fill="#003800" x="2" y="29"/>
<rect width="1" height="1" fill="#003800" x="3" y="29"/>
<rect width="1" height="1" fill="#003800" x="4" y="29"/>
<rect width="1" height="1" fill="#003800" x="5" y="29"/>
<rect width="1" height="1" fill="#003800" x="6" y="29"/>
<rect width="1" height="1" fill="#003800" x="7" y="29"/>
<rect width="1" height="1" fill="#003800" x="8" y="29"/>
<rect width="1" height="1" fill="#003800" x="9" y="29"/>
<rect width="1" height="1" fill="#003800" x="10" y="29"/>
<rect width="1" height="1" fill="#003800" x="11" y="29"/>
<rect width="1" height="1" fill="#003800" x="12" y="29"/>
<rect width="1" height="1" fill="#b8c8b0" x="13" y="29"/>
<rect width="1" height="1" fill="#080000" x="14" y="29"/>
<rect width="1" height="1" fill="#080000" x="18" y="29"/>
<rect width="1" height="1" fill="#0068e8" x="19" y="29"/>
<rect width="1" height="1" fill="#0068e8" x="20" y="29"/>
<rect width="1" height="1" fill="#0068e8" x="21" y="29"/>
<rect width="1" height="1" fill="#0018a8" x="22" y="29"/>
<rect width="1" height="1" fill="#0068e8" x="23" y="29"/>
<rect width="1" height="1" fill="#48c8f8" x="24" y="29"/>
<rect width="1" height="1" fill="#0098f8" x="25" y="29"/>
<rect width="1" height="1" fill="#48c8f8" x="26" y="29"/>
<rect width="1" height="1" fill="#48c8f8" x="27" y="29"/>
<rect width="1" height="1" fill="#48c8f8" x="28" y="29"/>
<rect width="1" height="1" fill="#48c8f8" x="29" y="29"/>
<rect width="1" height="1" fill="#080000" x="30" y="29"/>
<rect width="1" height="1" fill="#080000" x="0" y="30"/>
<rect width="1" height="1" fill="#080000" x="1" y="30"/>
<rect width="1" height="1" fill="#98a088" x="2" y="30"/>
<rect width="1" height="1" fill="#b8c8b0" x="3" y="30"/>
<rect width="1" height="1" fill="#586068" x="4" y="30"/>
<rect width="1" height="1" fill="#98a088" x="5" y="30"/>
<rect width="1" height="1" fill="#b8c8b0" x="6" y="30"/>
<rect width="1" height="1" fill="#586068" x="7" y="30"/>
<rect width="1" height="1" fill="#98a088" x="8" y="30"/>
<rect width="1" height="1" fill="#b8c8b0" x="9" y="30"/>
<rect width="1" height="1" fill="#586068" x="10" y="30"/>
<rect width="1" height="1" fill="#98a088" x="11" y="30"/>
<rect width="1" height="1" fill="#b8c8b0" x="12" y="30"/>
<rect width="1" height="1" fill="#080000" x="13" y="30"/>
<rect width="1" height="1" fill="#080000" x="18" y="30"/>
<rect width="1" height="1" fill="#0018a8" x="19" y="30"/>
<rect width="1" height="1" fill="#0018a8" x="20" y="30"/>
<rect width="1" height="1" fill="#889098" x="21" y="30"/>
<rect width="1" height="1" fill="#0068e8" x="22" y="30"/>
<rect width="1" height="1" fill="#0068e8" x="23" y="30"/>
<rect width="1" height="1" fill="#0068e8" x="24" y="30"/>
<rect width="1" height="1" fill="#0068e8" x="25" y="30"/>
<rect width="1" height="1" fill="#0068e8" x="26" y="30"/>
<rect width="1" height="1" fill="#0068e8" x="27" y="30"/>
<rect width="1" height="1" fill="#0068e8" x="28" y="30"/>
<rect width="1" height="1" fill="#0068e8" x="29" y="30"/>
<rect width="1" height="1" fill="#080000" x="30" y="30"/>
<rect width="1" height="1" fill="#080000" x="1" y="31"/>
<rect width="1" height="1" fill="#080000" x="2" y="31"/>
<rect width="1" height="1" fill="#080000" x="3" y="31"/>
<rect width="1" height="1" fill="#080000" x="4" y="31"/>
<rect width="1" height="1" fill="#080000" x="5" y="31"/>
<rect width="1" height="1" fill="#080000" x="6" y="31"/>
<rect width="1" height="1" fill="#080000" x="7" y="31"/>
<rect width="1" height="1" fill="#080000" x="8" y="31"/>
<rect width="1" height="1" fill="#080000" x="9" y="31"/>
<rect width="1" height="1" fill="#080000" x="10" y="31"/>
<rect width="1" height="1" fill="#080000" x="11" y="31"/>
<rect width="1" height="1" fill="#080000" x="12" y="31"/>
<rect width="1" height="1" fill="#080000" x="19" y="31"/>
<rect width="1" height="1" fill="#080000" x="20" y="31"/>
<rect width="1" height="1" fill="#586070" x="21" y="31"/>
<rect width="1" height="1" fill="#080000" x="22" y="31"/>
<rect width="1" height="1" fill="#080000" x="23" y="31"/>
<rect width="1" height="1" fill="#080000" x="24" y="31"/>
<rect width="1" height="1" fill="#586070" x="25" y="31"/>
<rect width="1" height="1" fill="#080000" x="26" y="31"/>
<rect width="1" height="1" fill="#080000" x="27" y="31"/>
<rect width="1" height="1" fill="#080000" x="28" y="31"/>
<rect width="1" height="1" fill="#586070" x="29" y="31"/>
<rect width="1" height="1" fill="#080000" x="30" y="31"/>
</svg>
