<svg xmlns="http://www.w3.org/2000/svg" viewBox="0 -0.5 32 32" height="256" width="256" shape-rendering="crispEdges">
<metadata>Made with Pixels to Svg https://codepen.io/shshaw/pen/XbxvNj</metadata>
<path stroke="#000000" d="M4 0h4M0 1h3M4 1h1M8 1h1M0 2h5M9 2h1M0 3h1M3 3h2M10 3h4M0 4h1M4 4h1M14 4h1M0 5h1M14 5h1M0 6h2M15 6h1M0 7h1M0 8h2M15 8h1M0 9h1M4 9h1M11 9h4M0 10h1M3 10h2M10 10h4M0 11h5M9 11h5M3 12h2M9 12h5M3 13h2M8 13h5M4 14h7" />
<path stroke="#f00008" d="M5 1h2M5 2h3M5 3h4M1 4h2M10 4h1M13 4h1M1 5h3M1 7h2M5 8h6M9 10h1M8 12h1" />
<path stroke="#f89868" d="M7 1h1M1 3h1M5 5h4M5 6h7M8 9h2M1 10h1M5 10h4M5 11h3M5 12h1" />
<path stroke="#080000" d="M26 1h3M20 2h1M25 2h1M28 2h1M19 3h1M21 3h4M28 3h1M18 4h1M28 4h2M17 5h1M30 5h1M16 6h1M30 6h1M16 7h1M30 7h1M17 8h2M28 8h2M19 9h1M21 9h2M28 9h1M20 10h5M28 10h1M20 11h6M28 11h1M19 12h10M20 13h7M21 14h5M1 17h11M24 17h2M0 18h1M11 18h1M23 18h1M26 18h2M0 19h1M12 19h3M22 19h1M28 19h2M0 20h1M14 20h1M21 20h1M23 20h1M30 20h2M0 21h1M14 21h1M21 21h2M31 21h1M0 22h1M14 22h1M20 22h2M23 22h1M31 22h1M0 23h1M14 23h1M19 23h1M22 23h1M31 23h1M0 24h1M12 24h3M18 24h1M31 24h1M0 25h1M14 25h1M18 25h1M31 25h1M0 26h1M14 26h1M18 26h1M31 26h1M0 27h1M14 27h1M18 27h1M30 27h1M0 28h1M14 28h1M18 28h1M26 28h1M29 28h2M0 29h1M14 29h1M18 29h1M30 29h1M0 30h2M13 30h1M18 30h1M30 30h1M1 31h12M19 31h2M22 31h3M26 31h3M30 31h1" />
<path stroke="#f85800" d="M8 2h1M9 3h1M11 4h2M13 5h1M4 6h1M12 6h1M14 6h1M3 7h8M13 7h1M15 7h1M11 8h4M1 9h2M5 9h3" />
<path stroke="#504000" d="M26 2h1M25 3h1M24 4h1M18 5h1M28 5h1M19 6h2M28 7h1" />
<path stroke="#f8f898" d="M27 2h1M23 4h1M22 5h3M18 6h1M27 6h1M18 7h2M21 7h3M20 9h1M24 9h1M25 10h3M27 11h1" />
<path stroke="#f8f8f8" d="M2 3h1M26 3h1M20 4h1M25 4h1M12 5h1M19 5h2M17 7h1M26 11h1M6 13h1M3 20h2M13 21h1M24 21h1M9 22h1M24 22h2M10 23h1M26 23h2M28 24h2M12 27h1M20 27h1" />
<path stroke="#b88000" d="M20 3h1M21 4h1M21 5h1M27 5h1M21 8h7M23 9h1" />
<path stroke="#f8c000" d="M27 3h1M22 4h1M26 4h2M25 5h2M17 6h1M26 6h1M20 7h1M24 7h4M19 8h2M25 9h3" />
<path stroke="#f8b878" d="M3 4h1M4 5h1M9 5h3M14 7h1M8 11h1M6 12h2M5 13h1M7 13h1" />
<path stroke="#800010" d="M5 4h1M13 6h1M11 7h2" />
<path stroke="#c00000" d="M6 4h4M2 6h2M2 8h3M3 9h1M10 9h1M2 10h1" />
<path stroke="#f8d880" d="M19 4h1M29 6h1M22 20h1M22 22h1" />
<path stroke="#7f2616" d="M29 5h1" />
<path stroke="#d08000" d="M21 6h5M28 6h1" />
<path stroke="#908880" d="M29 7h1" />
<path stroke="#30f830" d="M1 18h2M5 18h2M8 18h2M1 19h1M6 19h1M8 19h2M12 20h1M12 22h2M10 24h1M4 25h1M12 25h1M13 26h1M13 27h1" />
<path stroke="#00c010" d="M3 18h2M5 19h1M5 20h1M10 21h2M12 23h2M1 26h1M11 26h1M13 28h1" />
<path stroke="#009000" d="M7 18h1M2 19h1M7 19h1M2 20h1M7 20h1M11 20h1M3 21h2M7 21h3M11 22h1M1 23h9M1 24h9M3 25h1M5 25h6M13 25h1M1 28h11" />
<path stroke="#60f848" d="M10 18h1M10 19h1M1 20h1M6 20h1M1 21h2M5 21h2M1 27h5M7 27h1M9 27h1" />
<path stroke="#b8f0f8" d="M24 18h1M24 19h1M24 20h1M26 22h1M28 23h1M30 24h1M20 25h1M30 25h1M20 26h1M21 27h1M19 28h1" />
<path stroke="#0098f8" d="M25 18h1M25 19h1M25 20h1M25 29h1" />
<path stroke="#d8f8c8" d="M3 19h2M8 20h3M13 20h1M12 21h1M1 22h8M10 22h1M12 26h1M6 27h1M8 27h1M10 27h2" />
<path stroke="#003800" d="M11 19h1M11 23h1M11 24h1M1 25h2M11 25h1M2 26h9M12 28h1M2 29h11" />
<path stroke="#0068e8" d="M23 19h1M23 21h1M24 23h2M19 24h1M23 24h5M21 25h1M23 25h7M19 26h1M25 26h6M19 27h1M23 27h1M27 27h3M20 28h2M23 28h1M19 29h3M23 29h1M22 30h8" />
<path stroke="#48c8f8" d="M26 19h2M26 20h4M25 21h6M27 22h4M20 23h1M23 23h1M29 23h2M20 24h1M22 24h1M19 25h1M21 26h1M24 29h1M26 29h4" />
<path stroke="#0018a8" d="M21 23h1M21 24h1M22 25h1M22 26h3M22 27h1M24 27h3M22 28h1M24 28h1M27 28h2M22 29h1M19 30h2" />
<path stroke="#586070" d="M25 28h1M21 31h1M25 31h1M29 31h1" />
<path stroke="#98a088" d="M1 29h1M2 30h1M5 30h1M8 30h1M11 30h1" />
<path stroke="#b8c8b0" d="M13 29h1M3 30h1M6 30h1M9 30h1M12 30h1" />
<path stroke="#586068" d="M4 30h1M7 30h1M10 30h1" />
<path stroke="#889098" d="M21 30h1" />
</svg>